<svg xmlns="http://www.w3.org/2000/svg" width="32" height="32" viewBox="0 0 32 32" fill="none">
  <rect width="32" height="32" rx="7" fill="#0e7490"/>
  <path d="M17 5C13 5 10.5 7.8 10.5 11c0 2.5 1.8 4.2 1.8 5.5S10.5 20 10.5 22.5c0 3 2.2 4.5 5 4.5s5.5-2 5.5-5c0-2-1.5-3.5-1.5-5.5S22 13 22 11c0-3.2-2.2-6-5-6Z" fill="white" opacity="0.85"/>
  <path d="M6.5 19.5C9 19.5 11 17.5 13.5 15.5S18 13.5 20 15s3.5 4 6 4" stroke="#34d399" stroke-width="2.5" stroke-linecap="round" fill="none"/>
  <circle cx="6.5" cy="19.5" r="2" fill="#34d399"/>
  <circle cx="26" cy="19" r="2" fill="#34d399"/>
</svg>
