<svg xmlns="http://www.w3.org/2000/svg" width="32" height="32" viewBox="0 0 32 32" fill="none">
  <rect width="32" height="32" rx="7" fill="#fff"/>
  <path d="M12 9C12 7 10 6 8 6C5.5 6 4 9.5 4 16C4 22.5 5.5 26 8 26C10 26 12 25 12 23C12 21 10 19 10 16C10 13 12 11 12 9Z" fill="#0e7490"/>
  <path d="M20 9C20 7 22 6 24 6C26.5 6 28 9.5 28 16C28 22.5 26.5 26 24 26C22 26 20 25 20 23C20 21 22 19 22 16C22 13 20 11 20 9Z" fill="#0e7490"/>
  <line x1="12" y1="16" x2="20" y2="16" stroke="#0e7490" stroke-width="2" stroke-linecap="round"/>
</svg>
